REM DIRINDEX 1\2\6,1\2\7,1\2\8,1\3\9,1\3\10,1\3\11,1\4\12,1\4\13,1\4\14,1\5\15,1\5\16,1\5\17,1\5\18
REM DIRNAME folder01,folder02,folder03,folder04,folder05,folder06,folder07,folder08,folder09,folder10,folder11,folder12,folder13,folder14,folder15,folder16,folder17,folder18
TITLE ""
FILE "2Q_t_0690-0707.mp3" MP3
  TRACK 01 AUDIO
    TITLE "13:cjc019_3439"
    INDEX 01 00:00:00
  TRACK 02 AUDIO
    TITLE "0:"
    INDEX 01 00:01:11
  TRACK 03 AUDIO
    TITLE "14:cjc019_3440"
    INDEX 01 00:02:02
  TRACK 04 AUDIO
    TITLE "0:"
    INDEX 01 00:04:52
  TRACK 05 AUDIO
    TITLE "13:cjc019_3441"
    INDEX 01 00:05:38
  TRACK 06 AUDIO
    TITLE "0:"
    INDEX 01 00:06:73
  TRACK 07 AUDIO
    TITLE "14:cjc019_3442"
    INDEX 01 00:07:52
  TRACK 08 AUDIO
    TITLE "0:"
    INDEX 01 00:11:19
  TRACK 09 AUDIO
    TITLE "13:cjc019_3443"
    INDEX 01 00:12:01
  TRACK 10 AUDIO
    TITLE "0:"
    INDEX 01 00:13:20
  TRACK 11 AUDIO
    TITLE "14:cjc019_3444"
    INDEX 01 00:14:04
  TRACK 12 AUDIO
    TITLE "0:"
    INDEX 01 00:16:34
  TRACK 13 AUDIO
    TITLE "13:cjc019_3445"
    INDEX 01 00:17:12
  TRACK 14 AUDIO
    TITLE "0:"
    INDEX 01 00:18:46
  TRACK 15 AUDIO
    TITLE "14:cjc019_3446"
    INDEX 01 00:19:24
  TRACK 16 AUDIO
    TITLE "0:"
    INDEX 01 00:22:07
  TRACK 17 AUDIO
    TITLE "13:cjc019_3447"
    INDEX 01 00:22:60
  TRACK 18 AUDIO
    TITLE "0:"
    INDEX 01 00:23:71
  TRACK 19 AUDIO
    TITLE "14:cjc019_3448"
    INDEX 01 00:24:57
  TRACK 20 AUDIO
    TITLE "0:"
    INDEX 01 00:28:13
  TRACK 21 AUDIO
    TITLE "13:cjc019_3449"
    INDEX 01 00:28:68
  TRACK 22 AUDIO
    TITLE "0:"
    INDEX 01 00:29:70
  TRACK 23 AUDIO
    TITLE "14:cjc019_3450"
    INDEX 01 00:30:57
  TRACK 24 AUDIO
    TITLE "0:"
    INDEX 01 00:34:38
  TRACK 25 AUDIO
    TITLE "13:cjc019_3451"
    INDEX 01 00:35:23
  TRACK 26 AUDIO
    TITLE "0:"
    INDEX 01 00:36:56
  TRACK 27 AUDIO
    TITLE "14:cjc019_3452"
    INDEX 01 00:37:30
  TRACK 28 AUDIO
    TITLE "0:"
    INDEX 01 00:39:52
  TRACK 29 AUDIO
    TITLE "13:cjc019_3453"
    INDEX 01 00:40:30
  TRACK 30 AUDIO
    TITLE "0:"
    INDEX 01 00:41:53
  TRACK 31 AUDIO
    TITLE "14:cjc019_3454"
    INDEX 01 00:42:33
  TRACK 32 AUDIO
    TITLE "0:"
    INDEX 01 00:43:52
  TRACK 33 AUDIO
    TITLE "13:cjc019_3455"
    INDEX 01 00:44:34
  TRACK 34 AUDIO
    TITLE "0:"
    INDEX 01 00:45:67
  TRACK 35 AUDIO
    TITLE "14:cjc019_3456"
    INDEX 01 00:46:47
  TRACK 36 AUDIO
    TITLE "0:"
    INDEX 01 00:48:65
  TRACK 37 AUDIO
    TITLE "13:cjc019_3457"
    INDEX 01 00:49:41
  TRACK 38 AUDIO
    TITLE "0:"
    INDEX 01 00:50:68
  TRACK 39 AUDIO
    TITLE "14:cjc019_3458"
    INDEX 01 00:51:46
  TRACK 40 AUDIO
    TITLE "0:"
    INDEX 01 00:53:62
  TRACK 41 AUDIO
    TITLE "13:cjc019_3459"
    INDEX 01 00:54:40
  TRACK 42 AUDIO
    TITLE "0:"
    INDEX 01 00:55:55
  TRACK 43 AUDIO
    TITLE "14:cjc019_3460"
    INDEX 01 00:56:39
  TRACK 44 AUDIO
    TITLE "0:"
    INDEX 01 01:00:35
  TRACK 45 AUDIO
    TITLE "13:cjc019_3461"
    INDEX 01 01:01:15
  TRACK 46 AUDIO
    TITLE "0:"
    INDEX 01 01:02:26
  TRACK 47 AUDIO
    TITLE "14:cjc019_3462"
    INDEX 01 01:03:06
  TRACK 48 AUDIO
    TITLE "0:"
    INDEX 01 01:05:32
  TRACK 49 AUDIO
    TITLE "13:cjc019_3463"
    INDEX 01 01:06:10
  TRACK 50 AUDIO
    TITLE "0:"
    INDEX 01 01:07:35
  TRACK 51 AUDIO
    TITLE "14:cjc019_3464"
    INDEX 01 01:08:05
  TRACK 52 AUDIO
    TITLE "0:"
    INDEX 01 01:10:65
  TRACK 53 AUDIO
    TITLE "13:cjc019_3465"
    INDEX 01 01:11:39
  TRACK 54 AUDIO
    TITLE "0:"
    INDEX 01 01:12:46
  TRACK 55 AUDIO
    TITLE "14:cjc019_3466"
    INDEX 01 01:13:28
  TRACK 56 AUDIO
    TITLE "0:"
    INDEX 01 01:17:73
  TRACK 57 AUDIO
    TITLE "13:cjc019_3467"
    INDEX 01 01:18:49
  TRACK 58 AUDIO
    TITLE "0:"
    INDEX 01 01:19:70
  TRACK 59 AUDIO
    TITLE "14:cjc019_3468"
    INDEX 01 01:20:51
  TRACK 60 AUDIO
    TITLE "0:"
    INDEX 01 01:24:10
  TRACK 61 AUDIO
    TITLE "13:cjc019_3469"
    INDEX 01 01:24:67
  TRACK 62 AUDIO
    TITLE "0:"
    INDEX 01 01:25:70
  TRACK 63 AUDIO
    TITLE "14:cjc019_3470"
    INDEX 01 01:26:60
  TRACK 64 AUDIO
    TITLE "0:"
    INDEX 01 01:29:29
  TRACK 65 AUDIO
    TITLE "13:cjc019_3471"
    INDEX 01 01:30:05
  TRACK 66 AUDIO
    TITLE "0:"
    INDEX 01 01:31:20
  TRACK 67 AUDIO
    TITLE "14:cjc019_3472"
    INDEX 01 01:32:04
  TRACK 68 AUDIO
    TITLE "0:"
    INDEX 01 01:34:34
  TRACK 69 AUDIO
    TITLE "13:cjc019_3473"
    INDEX 01 01:35:12
  TRACK 70 AUDIO
    TITLE "0:"
    INDEX 01 01:36:52
  TRACK 71 AUDIO
    TITLE "14:cjc019_3474"
    INDEX 01 01:37:36
  TRACK 72 AUDIO
    TITLE "0:"
    INDEX 01 01:38:61
